<?xml version="1.0" encoding="iso-8859-1"?>
<!-- Uploaded to: SVG Repo, www.svgrepo.com, Generator: SVG Repo Mixer Tools -->
<svg fill="#000000" height="800px" width="800px" version="1.1" id="Layer_1" xmlns="http://www.w3.org/2000/svg" xmlns:xlink="http://www.w3.org/1999/xlink" 
	 viewBox="0 0 406 406" xml:space="preserve">
<g>
	<g>
		<g>
			<path d="M398,105.262H296.526c1.645-27.809-18.694-62.097-21.502-66.683c-1.414-2.31-3.908-3.747-6.616-3.819
				c0,0-0.784-0.021-2.2-0.021c-14.762,0-64.068,1.98-78.783,27.467l-8.578,14.857l-23.296-13.449
				c-2.694-1.556-6.047-1.408-8.593,0.378c-2.548,1.786-3.828,4.887-3.284,7.95l5.924,33.32h-2.765l-11.495-6.637
				c-2.694-1.556-6.046-1.407-8.593,0.378c-2.077,1.456-3.292,3.788-3.382,6.259H8c-4.418,0-8,3.582-8,8v250c0,4.418,3.582,8,8,8
				h390c4.418,0,8-3.582,8-8v-250C406,108.843,402.418,105.262,398,105.262z M136.238,162.554c2.694,1.555,6.048,1.409,8.593-0.379
				c2.548-1.786,3.828-4.887,3.284-7.95l-5.894-33.152l14.577,8.416c2.695,1.557,6.048,1.409,8.593-0.378
				c2.548-1.786,3.828-4.887,3.284-7.95l-6.24-35.099l15.339,8.855c1.837,1.062,4.022,1.349,6.07,0.8
				c2.05-0.549,3.797-1.89,4.857-3.728l12.578-21.786c7.513-13.012,36.256-19.068,62.318-19.447
				c8.32,14.956,23.226,48.207,14.294,63.679l-12.578,21.786c-1.062,1.838-1.349,4.021-0.8,6.07c0.549,2.05,1.891,3.797,3.728,4.858
				l15.339,8.855l-33.517,12.146c-2.925,1.061-4.97,3.72-5.243,6.818c-0.273,3.1,1.274,6.076,3.969,7.631l14.577,8.417
				l-31.656,11.473c-2.925,1.061-4.97,3.72-5.243,6.818c-0.273,3.1,1.274,6.076,3.969,7.631l13.474,7.779l-22.851,8.282
				c-9.476,3.434-17.469,10.132-22.531,18.899l-0.04,0.072c-7.88,13.647-22.577,22.125-38.354,22.124
				c-5.043,0-10.039-0.88-14.774-2.569L249.164,91.729c2.21-3.826,0.898-8.719-2.928-10.928c-3.826-2.21-8.72-0.899-10.928,2.928
				L131.514,263.508c-15.848-13.621-20.18-37.511-9.209-56.513l0.189-0.328c4.682-8.107,6.357-17.649,4.719-26.866l-4.449-25.025
				L136.238,162.554z M390,355.261H16v-234h110.004l3.35,18.844l-13.475-7.78c-2.693-1.554-6.047-1.407-8.593,0.379
				c-2.548,1.786-3.828,4.887-3.284,7.95l7.458,41.947c0.979,5.512-0.022,11.217-2.821,16.065l-0.19,0.328
				c-15.369,26.622-8.464,60.387,14.967,78.541l-25.773,44.641c-2.21,3.826-0.898,8.719,2.928,10.928
				c1.26,0.728,2.635,1.073,3.992,1.073c2.765,0,5.454-1.435,6.936-4.001l25.766-44.628c7.245,2.985,15.011,4.547,22.869,4.547
				c0.001,0,0.002,0,0.003,0c21.476,0,41.48-11.542,52.231-30.163l0.041-0.072c3.157-5.469,8.166-9.666,14.103-11.817l39.01-14.137
				c2.925-1.061,4.97-3.72,5.243-6.818c0.273-3.1-1.274-6.076-3.969-7.631l-13.474-7.779l31.657-11.473
				c2.925-1.061,4.97-3.72,5.243-6.818c0.273-3.1-1.274-6.076-3.969-7.631l-14.577-8.417l33.517-12.146
				c2.925-1.061,4.97-3.72,5.243-6.818c0.273-3.1-1.274-6.076-3.969-7.632l-23.296-13.449l8.579-14.857
				c0.223-0.387,0.435-0.78,0.641-1.175H390V355.261z"/>
			<path d="M157.667,318.177h-9.5c-4.418,0-8,3.582-8,8c0,4.418,3.582,8,8,8h9.5c4.418,0,8-3.582,8-8
				C165.667,321.758,162.085,318.177,157.667,318.177z"/>
			<path d="M204.775,318.177h-15.956c-4.418,0-8,3.582-8,8c0,4.418,3.582,8,8,8h15.956c4.418,0,8-3.582,8-8
				C212.775,321.758,209.193,318.177,204.775,318.177z"/>
			<path d="M298.994,318.177h-15.956c-4.418,0-8,3.582-8,8c0,4.418,3.582,8,8,8h15.956c4.418,0,8-3.582,8-8
				C306.994,321.758,303.412,318.177,298.994,318.177z"/>
			<path d="M251.885,318.177h-14.437c-4.418,0-8,3.582-8,8c0,4.418,3.582,8,8,8h14.437c4.418,0,8-3.582,8-8
				C259.885,321.758,256.303,318.177,251.885,318.177z"/>
			<path d="M331.667,334.177h9.5c4.418,0,8-3.582,8-8c0-4.418-3.582-8-8-8h-9.5c-4.418,0-8,3.582-8,8
				C323.667,330.594,327.249,334.177,331.667,334.177z"/>
		</g>
	</g>
</g>
</svg>